<svg width="100" height="100" viewBox="0 0 100 100" fill="none" xmlns="http://www.w3.org/2000/svg">
<g clip-path="url(#clip0_1_74)">
<path d="M97.0522 19.6248C96.5591 19.7688 96.0661 19.9029 95.5732 20.0278C92.5597 20.7887 92.2827 19.7847 94.4645 17.5694C95.4415 16.5767 96.3049 15.4971 97.0546 14.3309C98.7351 11.716 97.2775 10.5756 94.4183 11.7971C93.3984 12.2328 92.3616 12.6279 91.3104 12.9801C88.3644 13.9695 84.1838 12.4771 81.5588 10.8122C78.2447 8.71057 74.4784 7.66033 70.2585 7.66033C64.3475 7.66033 59.3093 9.745 55.1409 13.911C50.9737 18.0793 48.8891 23.1189 48.8891 29.0284C48.8891 29.8366 48.9352 30.6571 49.0265 31.4891C49.1762 32.8432 46.8956 33.8248 43.8181 33.3902C37.1609 32.4503 30.8359 30.4331 24.8418 27.3409C18.8972 24.2746 13.6506 20.4159 9.10291 15.7647C6.92903 13.5417 3.98891 13.7332 3.17722 16.734C2.69091 18.5328 2.44904 20.4036 2.44904 22.3466C2.44904 26.0083 3.30892 29.4044 5.02903 32.5349C5.88449 34.0928 6.88636 35.5032 8.03685 36.7651C9.97198 38.8893 9.67585 40.1218 6.98219 39.3666C4.28963 38.6114 2.31643 37.4902 2.31643 37.5634C2.31643 37.6366 2.31643 37.6962 2.31643 37.6962C2.31643 42.855 3.9363 47.388 7.17808 51.2906C9.17501 53.695 11.4949 55.5523 14.1369 56.8604C16.9229 58.2404 18.2207 59.0102 16.6628 59.2118C15.7229 59.3333 14.7773 59.394 13.8262 59.394C13.1825 59.394 12.5071 59.3648 11.8025 59.3052C10.688 59.2107 10.4877 61.5328 12.1773 64.1422C13.5202 66.2157 15.239 68.0402 17.3329 69.6163C19.4626 71.2204 21.7579 72.3718 24.215 73.0731C27.2048 73.9253 27.8048 75.4777 25.1391 77.076C18.5428 81.034 11.2429 83.0127 3.24068 83.0127C2.33905 83.0127 1.47899 82.9925 0.657375 82.9531C-0.768821 82.8845 0.187985 84.1406 2.94124 85.5826C11.5446 90.0887 20.8616 92.3398 30.8935 92.3398C38.4782 92.3398 45.6013 91.139 52.2618 88.7355C58.9199 86.3323 64.6102 83.1117 69.3289 79.0762C74.0476 75.0408 78.1169 70.3997 81.5354 65.1507C84.953 59.9019 87.4992 54.422 89.1765 48.7117C90.8513 43.0002 91.69 37.2773 91.69 31.5433C91.69 31.0267 91.6856 30.5628 91.6777 30.1543C91.6619 29.3866 93.6927 27.3085 95.9596 25.1823C96.9828 24.2222 97.9588 23.2146 98.8909 22.1577C100.947 19.824 100.036 18.7546 97.0522 19.6248Z" fill="#00D1FF"/>
</g>
<defs>
<clipPath id="clip0_1_74">
<rect width="100" height="100" fill="white"/>
</clipPath>
</defs>
</svg>
