<svg width="100" height="100" viewBox="0 0 100 100" fill="none" xmlns="http://www.w3.org/2000/svg">
<path d="M96.1023 20.8532C92.4926 16.5623 85.8281 14.8119 73.1003 14.8119H26.8987C13.8797 14.8119 7.10226 16.6752 3.50613 21.2435C0 25.6977 0 32.2606 0 41.3439V58.6565C0 76.2536 4.16 85.1881 26.8987 85.1881H73.1006C84.1381 85.1881 90.2542 83.6436 94.211 79.8568C98.2687 75.9736 100 69.6332 100 58.6565V41.3439C100 31.7648 99.7287 25.1632 96.1023 20.8532ZM64.2003 52.3903L43.2203 63.3552C42.7513 63.6003 42.2384 63.7219 41.7261 63.7219C41.1461 63.7219 40.5674 63.5658 40.0548 63.2555C39.0897 62.6706 38.5003 61.6245 38.5003 60.4961V38.6368C38.5003 37.5103 39.0881 36.4652 40.0513 35.88C41.0148 35.2948 42.2132 35.2548 43.2129 35.7742L64.1929 46.6684C65.2603 47.2226 65.9306 48.3245 65.9323 49.5268C65.9335 50.73 65.2661 51.8336 64.2003 52.3903Z" fill="#FF0000"/>
</svg>
