<svg width="219" height="37" viewBox="0 0 219 37" fill="none" xmlns="http://www.w3.org/2000/svg">
<path d="M24.1818 12.375C23.9432 11.5455 23.608 10.8125 23.1762 10.1761C22.7443 9.52842 22.2159 8.98297 21.5909 8.53978C20.9773 8.08524 20.2727 7.73865 19.4773 7.50001C18.6932 7.26138 17.8239 7.14206 16.8693 7.14206C15.0852 7.14206 13.5171 7.58524 12.1648 8.4716C10.8239 9.35796 9.77843 10.6477 9.02843 12.3409C8.27843 14.0227 7.90343 16.0796 7.90343 18.5114C7.90343 20.9432 8.27274 23.0114 9.01138 24.7159C9.75002 26.4205 10.7955 27.7216 12.1477 28.6193C13.5 29.5057 15.0966 29.9489 16.9375 29.9489C18.608 29.9489 20.0341 29.6534 21.2159 29.0625C22.4091 28.4602 23.3182 27.6136 23.9432 26.5227C24.5796 25.4318 24.8977 24.1421 24.8977 22.6534L26.3977 22.875H17.3977V17.3182H32.0057V21.7159C32.0057 24.7841 31.358 27.4205 30.0625 29.625C28.7671 31.8182 26.983 33.5114 24.7102 34.7046C22.4375 35.8864 19.8352 36.4773 16.9034 36.4773C13.6307 36.4773 10.7557 35.7557 8.27843 34.3125C5.80115 32.858 3.86934 30.7955 2.48297 28.125C1.10797 25.4432 0.420471 22.2614 0.420471 18.5796C0.420471 15.75 0.829562 13.2273 1.64774 11.0114C2.47729 8.7841 3.63638 6.89774 5.12502 5.35229C6.61365 3.80683 8.34661 2.63069 10.3239 1.82387C12.3012 1.01706 14.4432 0.613647 16.75 0.613647C18.7273 0.613647 20.5682 0.90342 22.2727 1.48297C23.9773 2.05115 25.4887 2.85797 26.8068 3.90342C28.1364 4.94887 29.2216 6.19319 30.0625 7.63637C30.9034 9.06819 31.4432 10.6477 31.6818 12.375H24.1818Z" fill="black"/>
<path d="M44.6747 1.09092V36H37.4134V1.09092H44.6747Z" fill="black"/>
<path d="M67.2813 24.8523V9.81819H74.5426V36H67.571V31.2443H67.2983C66.7074 32.7784 65.7244 34.0114 64.3494 34.9432C62.9858 35.875 61.321 36.3409 59.3551 36.3409C57.6051 36.3409 56.0654 35.9432 54.7358 35.1477C53.4063 34.3523 52.3665 33.2216 51.6165 31.7557C50.8779 30.2898 50.5029 28.5341 50.4915 26.4886V9.81819H57.7529V25.1932C57.7642 26.7386 58.179 27.9602 58.9972 28.858C59.8154 29.7557 60.9119 30.2046 62.2869 30.2046C63.1619 30.2046 63.9801 30.0057 64.7415 29.608C65.5029 29.1989 66.1165 28.5966 66.5824 27.8011C67.0597 27.0057 67.2926 26.0227 67.2813 24.8523Z" fill="black"/>
<path d="M80.3509 36V9.81819H87.3906V14.3864H87.6634C88.1406 12.7614 88.9418 11.5341 90.0668 10.7046C91.1918 9.86365 92.4872 9.44319 93.9531 9.44319C94.3168 9.44319 94.7088 9.46592 95.1293 9.51137C95.5497 9.55683 95.919 9.61933 96.2372 9.69887V16.1421C95.8963 16.0398 95.4247 15.9489 94.8225 15.8693C94.2202 15.7898 93.6691 15.75 93.1691 15.75C92.1009 15.75 91.1463 15.983 90.3054 16.4489C89.4759 16.9034 88.8168 17.5398 88.3281 18.358C87.8509 19.1761 87.6122 20.1193 87.6122 21.1875V36H80.3509Z" fill="black"/>
<path d="M123.276 12.375C123.037 11.5455 122.702 10.8125 122.27 10.1761C121.838 9.52842 121.31 8.98297 120.685 8.53978C120.071 8.08524 119.366 7.73865 118.571 7.50001C117.787 7.26138 116.918 7.14206 115.963 7.14206C114.179 7.14206 112.611 7.58524 111.259 8.4716C109.918 9.35796 108.872 10.6477 108.122 12.3409C107.372 14.0227 106.997 16.0796 106.997 18.5114C106.997 20.9432 107.366 23.0114 108.105 24.7159C108.844 26.4205 109.889 27.7216 111.241 28.6193C112.594 29.5057 114.19 29.9489 116.031 29.9489C117.702 29.9489 119.128 29.6534 120.31 29.0625C121.503 28.4602 122.412 27.6136 123.037 26.5227C123.673 25.4318 123.991 24.1421 123.991 22.6534L125.491 22.875H116.491V17.3182H131.099V21.7159C131.099 24.7841 130.452 27.4205 129.156 29.625C127.861 31.8182 126.077 33.5114 123.804 34.7046C121.531 35.8864 118.929 36.4773 115.997 36.4773C112.724 36.4773 109.849 35.7557 107.372 34.3125C104.895 32.858 102.963 30.7955 101.577 28.125C100.202 25.4432 99.5142 22.2614 99.5142 18.5796C99.5142 15.75 99.9233 13.2273 100.741 11.0114C101.571 8.7841 102.73 6.89774 104.219 5.35229C105.707 3.80683 107.44 2.63069 109.418 1.82387C111.395 1.01706 113.537 0.613647 115.844 0.613647C117.821 0.613647 119.662 0.90342 121.366 1.48297C123.071 2.05115 124.582 2.85797 125.901 3.90342C127.23 4.94887 128.315 6.19319 129.156 7.63637C129.997 9.06819 130.537 10.6477 130.776 12.375H123.276Z" fill="black"/>
<path d="M148.439 36.5114C145.746 36.5114 143.428 35.9659 141.484 34.875C139.553 33.7727 138.064 32.2159 137.018 30.2046C135.973 28.1818 135.45 25.7898 135.45 23.0284C135.45 20.3352 135.973 17.9716 137.018 15.9375C138.064 13.9034 139.536 12.3182 141.433 11.1818C143.342 10.0455 145.581 9.47728 148.149 9.47728C149.876 9.47728 151.484 9.75569 152.973 10.3125C154.473 10.858 155.78 11.6818 156.893 12.7841C158.018 13.8864 158.893 15.2727 159.518 16.9432C160.143 18.6023 160.456 20.5455 160.456 22.7727V24.7671H138.348V20.2671H153.621C153.621 19.2216 153.393 18.2955 152.939 17.4886C152.484 16.6818 151.854 16.0511 151.047 15.5966C150.251 15.1307 149.325 14.8977 148.268 14.8977C147.166 14.8977 146.189 15.1534 145.337 15.6648C144.496 16.1648 143.837 16.8409 143.359 17.6932C142.882 18.5341 142.638 19.4716 142.626 20.5057V24.7841C142.626 26.0796 142.865 27.1989 143.342 28.1421C143.831 29.0852 144.518 29.8125 145.405 30.3239C146.291 30.8352 147.342 31.0909 148.558 31.0909C149.365 31.0909 150.104 30.9773 150.774 30.75C151.445 30.5227 152.018 30.1818 152.496 29.7273C152.973 29.2727 153.337 28.7159 153.587 28.0568L160.303 28.5C159.962 30.1136 159.263 31.5227 158.206 32.7273C157.161 33.9205 155.808 34.8523 154.149 35.5227C152.501 36.1818 150.598 36.5114 148.439 36.5114Z" fill="black"/>
<path d="M177.126 36.5114C174.433 36.5114 172.115 35.9659 170.172 34.875C168.24 33.7727 166.751 32.2159 165.706 30.2046C164.661 28.1818 164.138 25.7898 164.138 23.0284C164.138 20.3352 164.661 17.9716 165.706 15.9375C166.751 13.9034 168.223 12.3182 170.121 11.1818C172.03 10.0455 174.268 9.47728 176.837 9.47728C178.564 9.47728 180.172 9.75569 181.661 10.3125C183.161 10.858 184.467 11.6818 185.581 12.7841C186.706 13.8864 187.581 15.2727 188.206 16.9432C188.831 18.6023 189.143 20.5455 189.143 22.7727V24.7671H167.036V20.2671H182.308C182.308 19.2216 182.081 18.2955 181.626 17.4886C181.172 16.6818 180.541 16.0511 179.734 15.5966C178.939 15.1307 178.013 14.8977 176.956 14.8977C175.854 14.8977 174.876 15.1534 174.024 15.6648C173.183 16.1648 172.524 16.8409 172.047 17.6932C171.57 18.5341 171.325 19.4716 171.314 20.5057V24.7841C171.314 26.0796 171.553 27.1989 172.03 28.1421C172.518 29.0852 173.206 29.8125 174.092 30.3239C174.979 30.8352 176.03 31.0909 177.246 31.0909C178.053 31.0909 178.791 30.9773 179.462 30.75C180.132 30.5227 180.706 30.1818 181.183 29.7273C181.661 29.2727 182.024 28.7159 182.274 28.0568L188.99 28.5C188.649 30.1136 187.95 31.5227 186.893 32.7273C185.848 33.9205 184.496 34.8523 182.837 35.5227C181.189 36.1818 179.286 36.5114 177.126 36.5114Z" fill="black"/>
<path d="M200.462 28.4659L200.479 19.7557H201.536L209.922 9.81819H218.257L206.99 22.9773H205.268L200.462 28.4659ZM193.882 36V1.09092H201.143V36H193.882ZM210.246 36L202.541 24.5966L207.382 19.4659L218.751 36H210.246Z" fill="black"/>
</svg>
